<?xml version="1.0" encoding="utf-8"?>
<!-- Generator: Adobe Illustrator 16.0.0, SVG Export Plug-In . SVG Version: 6.00 Build 0)  -->
<!DOCTYPE svg PUBLIC "-//W3C//DTD SVG 1.1//EN" "http://www.w3.org/Graphics/SVG/1.1/DTD/svg11.dtd">
<svg version="1.1" xmlns="http://www.w3.org/2000/svg" xmlns:xlink="http://www.w3.org/1999/xlink" x="0px" y="0px"
	 width="283.464px" height="283.465px" viewBox="-1091.957 467.479 283.464 283.465"
	 enable-background="new -1091.957 467.479 283.464 283.465" xml:space="preserve">
<g id="fond" display="none">
	<circle display="inline" fill="#20558A" cx="-916.652" cy="444.105" r="141.116"/>
	<circle display="inline" fill="#20558A" cx="-916.652" cy="746.181" r="141.116"/>
</g>
<g id="FOND_blanc" display="none">
	<rect x="-1091.751" y="-881.952" display="inline" fill="#717881" width="283.996" height="2394.188"/>
	<rect x="-1421.522" y="-171.185" display="inline" fill="#FFFFFF" width="2504.369" height="1248.557"/>
</g>
<g id="fond_-_copie" display="none">
	<circle display="inline" fill="#717881" cx="-916.652" cy="444.105" r="141.116"/>
	<circle display="inline" fill="#D5DCEA" cx="-916.652" cy="746.181" r="141.116"/>
</g>
<g id="A" display="none">
	<g display="inline">
		<path fill="#FFFFFF" d="M-806.488,447.425c0,29.981-10.572,55.543-31.714,76.685c-21.145,21.145-46.706,31.714-76.685,31.714
			c-29.981,0-55.543-10.569-76.685-31.714c-21.145-21.142-31.714-46.703-31.714-76.685c0-29.979,10.569-55.54,31.714-76.685
			c21.142-21.142,46.703-31.714,76.685-31.714c29.979,0,55.54,10.572,76.685,31.714
			C-817.061,391.885-806.488,417.445-806.488,447.425z M-914.887,445.667l0.146,3.516c0.682,13.966,5.834,25.587,15.454,34.863
			c9.617,9.278,21.313,13.916,35.083,13.916c14.257,0,26.243-5.003,35.962-15.015c9.716-10.009,14.575-22.387,14.575-37.134
			c0-27.147-9.986-50.537-29.956-70.166c-19.973-19.629-43.726-29.443-71.265-29.443c-28.224,0-51.734,9.4-70.532,28.198
			c-18.801,18.801-29.029,43.14-30.688,73.022c2.146-16.601,7.519-29.198,16.113-37.793c8.592-8.593,20.116-12.891,34.57-12.891
			c13.77,0,25.438,4.665,35.01,13.989C-920.845,420.058-915.67,431.703-914.887,445.667z M-951.068,447.425
			c0-4.003-1.392-7.421-4.175-10.254c-2.783-2.831-6.178-4.248-10.181-4.248c-4.006,0-7.423,1.417-10.254,4.248
			c-2.834,2.833-4.248,6.251-4.248,10.254c0,4.005,1.414,7.423,4.248,10.254c2.831,2.833,6.248,4.248,10.254,4.248
			c3.904,0,7.273-1.439,10.107-4.321C-952.485,454.727-951.068,451.332-951.068,447.425z M-849.848,447.425
			c0,4.005-1.417,7.423-4.248,10.254c-2.834,2.833-6.203,4.248-10.107,4.248c-4.006,0-7.423-1.415-10.254-4.248
			c-2.834-2.831-4.248-6.249-4.248-10.254c0-4.003,1.414-7.421,4.248-10.254c2.831-2.831,6.248-4.248,10.254-4.248
			c4.003,0,7.397,1.417,10.181,4.248C-851.239,440.004-849.848,443.422-849.848,447.425z"/>
	</g>
	<g id="Calque_2" display="inline">
	</g>
	<g id="Calque_7" display="inline">
	</g>
</g>
<g id="B" display="none">
	<g display="inline">
		<path fill="#FFFFFF" d="M-995.42,493.346h62.598v8.203h-62.598V493.346z"/>
	</g>
	<g display="inline">
		<path fill="#FFFFFF" d="M-906.92,482.346h62.598v8.203h-62.598V482.346z M-906.92,502.268h62.598v8.301h-62.598V502.268z"/>
	</g>
	<g display="inline">
		<path fill="#FFFFFF" d="M-970.068,476.039c0-3.7,2.5-6.301,6-6.301s5.9,2.601,5.9,6.301c0,3.601-2.3,6.3-6,6.3
			C-967.667,482.339-970.068,479.64-970.068,476.039z"/>
		<path fill="#FFFFFF" d="M-970.068,524.039c0-3.7,2.5-6.301,6-6.301s5.9,2.601,5.9,6.301c0,3.601-2.3,6.3-6,6.3
			C-967.667,530.339-970.068,527.64-970.068,524.039z"/>
	</g>
	<g display="inline">
		<path fill="#FFFFFF" stroke="#FFFFFF" stroke-width="8" stroke-miterlimit="10" d="M-920.352,683.637
			c-8.086,0-14.08,1.864-17.982,5.59c-3.902,3.728-3.675,7.349,0.686,10.863c5.203,4.149,7.083,8.912,5.643,14.291
			c-1.442,5.379-5.326,8.068-11.654,8.068c-4.008,0-7.383-1.669-10.125-5.01c-2.742-3.339-4.113-7.399-4.113-12.182
			c0-8.648,4.061-16.013,12.182-22.096c8.121-6.081,17.982-9.123,29.584-9.123c11.953,0,21.885,3.499,29.795,10.494
			c7.91,6.997,11.865,15.804,11.865,26.42c0,7.243-1.6,13.8-4.799,19.67c-3.2,5.872-8.385,11.796-15.557,17.771
			c-8.579,7.032-14.396,13.289-17.455,18.773s-4.588,12.34-4.588,20.566v3.164h-8.648v-7.805c0-6.819,1.335-13.587,4.008-20.303
			c2.671-6.714,6.714-13.447,12.129-20.197c4.43-5.554,7.699-10.88,9.809-15.979c2.109-5.097,3.164-10.317,3.164-15.662
			c0-8.999-2.04-15.82-6.117-20.461C-906.536,685.923-912.478,683.637-920.352,683.637z M-921.196,809.566
			c3.726,0,6.89,1.302,9.492,3.902c2.601,2.603,3.902,5.767,3.902,9.492c0,3.728-1.302,6.874-3.902,9.439
			c-2.602,2.565-5.766,3.85-9.492,3.85c-3.728,0-6.892-1.284-9.492-3.85c-2.602-2.565-3.902-5.712-3.902-9.439
			c0-3.726,1.3-6.89,3.902-9.492C-928.087,810.868-924.923,809.566-921.196,809.566z"/>
	</g>
</g>
<g id="C" display="none">
	<path display="inline" fill="#FFFFFF" d="M-969.934,797.241c-12.447-37.039,9.317-78.418,49.28-97.398l-14.993-24.848l65.27,9.916
		l-17.466,69.321l-19.999-33.168c-31.451,21.05-47.234,57.197-36.228,89.949c4.291,12.771,12.152,23.485,22.35,31.688
		C-944.335,835.336-962.488,819.399-969.934,797.241z"/>
</g>
<g id="mail" display="none">
</g>
<g id="annuaire">
	<circle fill="#FFFFFF" cx="-943.123" cy="673.795" r="56.997"/>
	<g>
		<g>
			<path fill="#AAAFB9" d="M-897.771,486.042c15.103,9.375,26.299,21.772,33.594,37.188c1.875,3.335,3.384,6.982,4.531,10.938
				c1.143,3.96,2.031,7.554,2.656,10.781c0.625,3.232,1.094,7.295,1.406,12.188c0.313,4.897,0.469,8.647,0.469,11.25
				c0,2.607,0,6.67,0,12.188c0,5.522,0,9.219,0,11.094c1.875,0,4.893,0,9.063,0c4.165,0,6.875,0,8.125,0c0.415,0,1.04,0,1.875,0
				c2.5,0,4.165,0.313,5,0.938c0.83,0.625,1.143,2.397,0.938,5.313c0,15.42,0,37.92,0,67.5c0,29.585,0,52.085,0,67.5
				c-0.21,1.045-0.21,2.71,0,5c0.205,2.295,0.156,4.219-0.156,5.781s-1.304,2.656-2.969,3.281h-220.313
				c-1.045-0.21-2.764-0.21-5.156,0c-2.397,0.205-4.375,0.156-5.938-0.156s-2.554-1.304-2.969-2.969V605.417
				c0-5.625,0-8.643,0-9.063c-0.21-1.665-0.107-2.861,0.313-3.594c0.415-0.728,1.353-1.094,2.813-1.094c1.665,0,4.063,0,7.188,0
				s5.986,0,8.594,0c2.603,0,5.156,0,7.656,0c0-3.125-0.054-7.813-0.156-14.063c-0.107-6.25-0.107-11.924,0-17.031
				c0.103-5.103,0.469-9.844,1.094-14.219c3.33-20.83,13.643-38.486,30.938-52.969c17.29-14.478,36.563-21.509,57.813-21.094
				c1.665-0.205,3.33-0.313,5-0.313C-929.075,471.979-912.878,476.667-897.771,486.042z M-951.365,502.292
				c-10.835-0.205-21.094,2.554-30.781,8.281c-9.688,5.732-17.031,13.389-22.031,22.969c-2.295,4.17-4.063,8.857-5.313,14.063
				c-1.25,5.21-1.929,9.688-2.031,13.438c-0.107,3.75-0.107,8.906,0,15.469c0.103,6.563,0.156,11.304,0.156,14.219h126.25
				c-0.21-3.125-0.264-7.759-0.156-13.906c0.103-6.143,0.103-11.094,0-14.844c-0.107-3.75-0.679-8.174-1.719-13.281
				c-1.045-5.103-2.607-9.736-4.688-13.906c-5-10.205-12.554-18.228-22.656-24.063c-10.107-5.83-20.889-8.75-32.344-8.75
				C-948.347,501.979-949.91,502.087-951.365,502.292z M-948.865,630.729c-5.625,0-10.625,1.772-15,5.313
				c-2.71,1.875-4.795,4.272-6.25,7.188c-2.5,3.96-3.75,8.232-3.75,12.813c0,4.585,1.196,8.804,3.594,12.656
				c2.393,3.857,5.571,6.826,9.531,8.906c0,1.46-0.21,3.022-0.625,4.688l-6.25,29.063h35.938l-6.25-30.625
				c-0.21-0.83-0.313-1.665-0.313-2.5c4.165-1.875,7.603-4.844,10.313-8.906c2.705-4.063,4.063-8.486,4.063-13.281
				c0-7.08-2.71-13.018-8.125-17.813c-3.96-5-9.063-7.5-15.313-7.5C-947.927,630.729-948.45,630.729-948.865,630.729z"/>
		</g>
	</g>
</g>
</svg>
