<?xml version="1.0" encoding="utf-8"?>
<!-- Generator: Adobe Illustrator 16.0.0, SVG Export Plug-In . SVG Version: 6.00 Build 0)  -->
<!DOCTYPE svg PUBLIC "-//W3C//DTD SVG 1.1//EN" "http://www.w3.org/Graphics/SVG/1.1/DTD/svg11.dtd">
<svg version="1.1" xmlns="http://www.w3.org/2000/svg" xmlns:xlink="http://www.w3.org/1999/xlink" x="0px" y="0px"
	 width="283.464px" height="283.465px" viewBox="-1403.768 467.479 283.464 283.465"
	 enable-background="new -1403.768 467.479 283.464 283.465" xml:space="preserve">
<g id="fond" display="none">
</g>
<g id="FOND_blanc" display="none">
	<rect x="-1421.522" y="-171.185" display="inline" fill="#FFFFFF" width="2504.369" height="1248.557"/>
</g>
<g id="fond_-_copie" display="none">
</g>
<g id="A" display="none">
	<g id="Calque_2" display="inline">
	</g>
	<g id="Calque_7" display="inline">
	</g>
</g>
<g id="B" display="none">
	<line display="inline" fill="#FFFFFF" x1="-1340.768" y1="619.795" x2="-1348.768" y2="619.795"/>
	<rect x="-1640.148" y="708.625" display="inline" fill="#20558A" width="248.988" height="11.344"/>
</g>
<g id="C" display="none">
</g>
<g id="mail" display="none">
</g>
<g id="annuaire">
	<circle fill="#AAAFB9" cx="-1260.817" cy="608.992" r="138.513"/>
	<g>
		<path fill="#FFFFFF" d="M-1328.424,577.478c0-7.514,2.412-15.128,7.238-22.84c4.824-7.713,11.865-14.1,21.12-19.162
			c9.255-5.062,20.052-7.594,32.392-7.594c11.468,0,21.595,2.117,30.375,6.348c8.78,4.232,15.562,9.987,20.349,17.264
			c4.785,7.278,7.179,15.188,7.179,23.73c0,6.725-1.364,12.618-4.094,17.68c-2.729,5.063-5.973,9.433-9.729,13.11
			c-3.758,3.679-10.5,9.869-20.23,18.569c-2.69,2.453-4.846,4.609-6.466,6.467c-1.623,1.859-2.83,3.56-3.619,5.102
			c-0.792,1.543-1.405,3.085-1.839,4.628c-0.436,1.542-1.088,4.253-1.958,8.128c-1.503,8.228-6.211,12.34-14.12,12.34
			c-4.114,0-7.575-1.345-10.382-4.035c-2.809-2.688-4.212-6.683-4.212-11.983c0-6.645,1.027-12.399,3.085-17.264
			c2.056-4.865,4.785-9.137,8.187-12.814c3.4-3.679,7.989-8.048,13.764-13.111c5.061-4.429,8.721-7.771,10.975-10.026
			c2.255-2.254,4.153-4.765,5.695-7.534c1.543-2.768,2.314-5.773,2.314-9.018c0-6.327-2.354-11.667-7.06-16.019
			c-4.707-4.349-10.779-6.525-18.213-6.525c-8.703,0-15.11,2.195-19.222,6.585c-4.114,4.391-7.594,10.856-10.441,19.399
			c-2.69,8.94-7.792,13.408-15.306,13.408c-4.431,0-8.168-1.561-11.212-4.687C-1326.902,584.499-1328.424,581.117-1328.424,577.478z
			 M-1270.521,707.521c-4.826,0-9.038-1.563-12.637-4.687c-3.6-3.124-5.398-7.493-5.398-13.11c0-4.984,1.739-9.176,5.221-12.578
			c3.48-3.399,7.751-5.102,12.814-5.102c4.983,0,9.175,1.702,12.577,5.102c3.4,3.402,5.102,7.594,5.102,12.578
			c0,5.537-1.78,9.889-5.339,13.051C-1261.741,705.938-1265.855,707.521-1270.521,707.521z"/>
	</g>
</g>
</svg>
