<?xml version="1.0" encoding="utf-8"?>
<!-- Generator: Adobe Illustrator 16.0.0, SVG Export Plug-In . SVG Version: 6.00 Build 0)  -->
<!DOCTYPE svg PUBLIC "-//W3C//DTD SVG 1.1//EN" "http://www.w3.org/Graphics/SVG/1.1/DTD/svg11.dtd">
<svg version="1.1" xmlns="http://www.w3.org/2000/svg" xmlns:xlink="http://www.w3.org/1999/xlink" x="0px" y="0px"
	 width="283.464px" height="283.465px" viewBox="-780.146 467.479 283.464 283.465"
	 enable-background="new -780.146 467.479 283.464 283.465" xml:space="preserve">
<g id="fond" display="none">
	<circle display="inline" fill="#20558A" cx="-916.652" cy="444.105" r="141.116"/>
	<circle display="inline" fill="#20558A" cx="-614.578" cy="444.105" r="141.116"/>
	<circle display="inline" fill="#20558A" cx="-916.652" cy="746.181" r="141.116"/>
	<circle display="inline" fill="#20558A" cx="-614.578" cy="746.181" r="141.116"/>
</g>
<g id="FOND_blanc" display="none">
	<rect x="-1421.522" y="-171.185" display="inline" fill="#FFFFFF" width="2504.369" height="1248.557"/>
</g>
<g id="fond_-_copie" display="none">
	<circle display="inline" fill="#717881" cx="-916.652" cy="444.105" r="141.116"/>
	<circle display="inline" fill="#717881" cx="-614.578" cy="444.105" r="141.116"/>
	<circle display="inline" fill="#D5DCEA" cx="-916.652" cy="746.181" r="141.116"/>
	<circle display="inline" fill="#D5DCEA" cx="-614.578" cy="746.181" r="141.116"/>
</g>
<g id="A" display="none">
	<g id="Calque_2" display="inline">
	</g>
	<g id="Calque_7" display="inline">
	</g>
	<g display="inline">
		<path fill="#FFFFFF" d="M-678.144,472.56v-27.441h27.441v27.441H-678.144z"/>
		<path fill="#FFFFFF" d="M-678.144,520.56v-27.441h27.441v27.441H-678.144z"/>
	</g>
</g>
<g id="B" display="none">
	<path display="inline" opacity="0.7" fill="none" stroke="#FFFFFF" stroke-width="11" stroke-miterlimit="10" d="M-614.568,579.232
		v-90.66c0-17.371,14.083-31.455,31.455-31.455h7.872c17.371,0,31.453,14.084,31.453,31.455v65.639"/>
	<path display="inline" fill="none" stroke="#FFFFFF" stroke-width="11" stroke-miterlimit="10" d="M-614.792,579.232v-90.66
		c0-17.371-14.083-31.455-31.455-31.455h-7.872c-17.371,0-31.453,14.084-31.453,31.455v65.639"/>
	<path display="inline" opacity="0.8" fill="#FFFFFF" d="M-529.922,679.562v143.093H-698.63V679.562H-529.922z M-677.652,689.499
		v59.953h60.064v-59.953H-677.652z M-677.652,816.141h60.064v-59.954h-60.064V816.141z M-627.083,724.608
		c-1.549,4.271-4.206,7.675-7.97,10.214s-7.97,3.81-12.62,3.81c-3.985,0-7.712-0.994-11.179-2.98
		c-3.47-1.989-6.219-4.694-8.248-8.116c-2.028-3.423-3.043-7.121-3.043-11.097c0-4.784,1.306-9.016,3.92-12.696
		c2.612-3.68,6.053-6.366,10.324-8.061c-1.033,2.282-1.546,5.042-1.546,8.281c0,3.902,0.997,7.581,2.991,11.041
		c1.995,3.46,4.691,6.183,8.09,8.17c3.397,1.987,7.091,2.981,11.083,2.981C-632.402,726.155-629.669,725.641-627.083,724.608z
		 M-550.9,689.499h-59.954v59.953h59.954V689.499z M-550.512,815.419V756h-60.459v59.419H-550.512z"/>
	<path display="inline" opacity="0.6" fill="#E9A402" d="M-627.083,724.608c-1.549,4.271-4.206,7.675-7.97,10.214
		s-7.97,3.81-12.62,3.81c-3.985,0-7.712-0.994-11.179-2.98c-3.47-1.989-6.219-4.694-8.248-8.116
		c-2.028-3.423-3.043-7.121-3.043-11.097c0-4.784,1.306-9.016,3.92-12.696c2.612-3.68,6.053-6.366,10.324-8.061
		c-1.033,2.282-1.546,5.042-1.546,8.281c0,3.902,0.997,7.581,2.991,11.041c1.995,3.46,4.691,6.183,8.09,8.17
		c3.397,1.987,7.091,2.981,11.083,2.981C-632.402,726.155-629.669,725.641-627.083,724.608z"/>
</g>
<g id="C" display="none">
	<g display="inline">
		<path fill="#FFFFFF" d="M-600.034,724.388l58.206-5.054c1.049-0.074,1.872-0.112,2.472-0.112c4.12,0,6.181,1.685,6.181,5.054
			c0,1.648-1.311,3.332-3.933,5.054l-50.447,32.231l22.935,57.5c0.522,1.199,0.786,2.134,0.786,2.808
			c0,0.898-0.451,1.816-1.35,2.751c-0.9,0.938-1.837,1.404-2.81,1.404c-1.425,0-3.074-0.822-4.946-2.471l-45.643-39.419
			l-45.644,39.419c-1.874,1.648-3.485,2.471-4.834,2.471c-1.123,0-2.116-0.467-2.979-1.404c-0.863-0.935-1.293-1.889-1.293-2.863
			c0-0.598,0.262-1.496,0.786-2.695l22.822-57.5l-50.335-32.231c-2.622-1.722-3.933-3.405-3.933-5.054
			c0-3.369,2.097-5.054,6.293-5.054c0.522,0,1.271,0.038,2.247,0.112l58.318,5.054l13.266-56.826c0.674-2.92,1.35-4.81,2.023-5.671
			c0.674-0.86,1.762-1.292,3.261-1.292c1.423,0,2.489,0.432,3.202,1.292c0.712,0.861,1.405,2.751,2.081,5.671L-600.034,724.388z"/>
	</g>
</g>
<g id="mail" display="none">
</g>
<g id="annuaire">
	<g>
		<g>
			<path fill="#AAAFB9" d="M-638.207,635.924c19.575,0,37.165-6.348,52.777-19.047c7.937,3.44,13.951,6.089,18.056,7.936
				c4.097,1.854,9.585,4.502,16.467,7.938c6.876,3.44,12.166,6.416,15.874,8.928c3.701,2.519,7.998,5.754,12.896,9.723
				c4.893,3.968,8.463,7.737,10.714,11.311c2.245,3.571,4.166,7.736,5.754,12.498c1.587,4.762,2.381,9.79,2.381,15.08v57.126
				h-269.839v-57.126c0.793-8.464,2.907-16.134,6.349-23.017c3.435-6.877,7.403-12.698,11.905-17.459
				c4.495-4.764,10.578-9.388,18.254-13.89c7.669-4.495,14.484-8.134,20.436-10.912c5.953-2.777,13.691-6.014,23.214-9.722
				C-677.095,629.049-658.841,635.924-638.207,635.924z M-638.405,472.434c-19.444,0-36.049,6.883-49.8,20.634
				c-13.759,13.759-20.635,30.426-20.635,50.001c0,19.58,6.876,36.247,20.635,49.999c13.751,13.759,30.356,20.635,49.8,20.635
				c19.445,0,36.111-6.876,50-20.635c13.889-13.752,20.833-30.419,20.833-49.999c0-19.575-6.944-36.242-20.833-50.001
				C-602.294,479.316-618.96,472.434-638.405,472.434z"/>
		</g>
	</g>
</g>
</svg>
